<?xml version="1.0" encoding="UTF-8"?>
<svg id="SVGRoot" width="500" height="259.04" version="1.1" viewBox="0 0 500 259.04413" xmlns="http://www.w3.org/2000/svg" xmlns:cc="http://creativecommons.org/ns#" xmlns:dc="http://purl.org/dc/elements/1.1/" xmlns:rdf="http://www.w3.org/1999/02/22-rdf-syntax-ns#"><metadata><rdf:RDF><cc:Work rdf:about=""><dc:format>image/svg+xml</dc:format><dc:type rdf:resource="http://purl.org/dc/dcmitype/StillImage"/><dc:title/></cc:Work></rdf:RDF></metadata><g transform="translate(-116.82 -126.91)" fill="#0d528b"><path d="m371.98 126.95c-54.701-0.152-91.732 8.0833-126.47 21.44-37.03 14.017-58.843 35.594-58.843 55.839 0 26.913 15.721 45.821 46.665 61.17 35.002 18.022 94.347 25.786 147.1 25.786 19.763 0 38.577-1.017 59.43-3.5699 7.0821-0.86495 8.162-1.2581 19.852-2.6892 25.602-3.1348 29.927-3.1348 49.208-1.2581 12.969 1.2581 23.616 5.0534 23.616 5.0534s0.13625-19.763 0.13625-22.882v-40.176c0-6.4478 0.58188-8.0047 9.7136-8.0047h4.0102c3.0456 0 3.5489-0.44557 3.5489-1.7771v-3.486c0-1.1166-0.50325-1.7823-4.5659-1.7823-4.0522 0-6.8829 0.66575-53.553 0.66575-45.654 0-42.073-0.42985-46.639-0.42985-3.0457 0-3.5489 0.66575-3.5489 1.5569v3.4912c0 1.1113 0.50325 1.9972 3.5489 1.9972l3.638-0.236c12.675 0 13.304 2.2279 13.304 10.233v26.834c0 11.559-4.0836 18.678-14.736 20.906-16.743 3.5594-30.577 5.3784-56.95 5.3784-34.493 0-53.344-4.2566-77.169-14.982-27.416-12.34-44.946-35.998-44.946-62.25 0-20.02 15.952-40.149 39.29-52.384 13.189-7.1398 26.279-11.402 39.824-13.886 6.1123-1.1218 12.314-1.8924 18.662-2.3904l0.0577-0.01c17.907-1.3839 46.235-1.3315 73.872 8.1305 11.784 4.0312 22.174 11.197 27.369 16.13l0.01 0.015c0.5609 0.63955 2.1755 2.123 0.19925 2.5739h-0.0263c-25.487 4.3824-52.494 8.943-53.003 9.0269-3.7848 0.62905-3.5017-0.78108-5.8554-3.5227-1.5202-1.7718-4.2252-2.9618-5.8554-4.7703-0.99075-1.0956-1.5779-2.4376-2.469-3.5908-0.48752-0.63953-1.0851-1.2319-1.667-1.515-1.9606-0.95405-1.5726 1.342-2.2541 3.4284-0.3355 0.98553-2.7364 3.465-4.33 5.4413-1.8976 2.3432-3.1505 5.5094-4.7808 7.4333-2.5686 2.9723-6.82 4.0102-11.014 3.4388-1.5464-0.19925-2.0654-0.70243-2.5948-2.8674-0.40362-1.5254-0.89115-3.9735-1.3839-4.7703-1.6356-2.6578-4.1727-1.861-4.0679-3.3182l0.015-0.16775c0.34597-1.9658 0.62905-0.5976 2.511-1.2266 0.90688-0.2988 0.59235-1.7299 0.67098-3.2711 0.0367-0.7863 1.1638-0.11 0.87542-1.2424-0.37217-1.4626-0.58185-3.0247-1.0589-4.4243-0.91212-2.7154-3.6695-3.3759-6.2276-3.2134-1.9815 0.1205-4.0364 1.8714-4.7336 3.6276-0.8597 2.165-0.39315 4.8647 1.0065 7.0139 1.8138 2.7678-3.4178 3.3707-7.6378 6.3272l-0.73915 0.5242c-3.6957 2.5844-4.2304 7.2603-5.7296 10.138-1.1585 2.2174-1.6827 2.857-3.2501 3.3969-4.0154 1.3787-26.813 4.6026-29.094 5.6405-0.31455 0.152-0.5714 0.30402-0.88067 0.8859-0.45608 0.83875-1.0065 2.5477-1.0065 2.5477s12.177-1.8242 20.345-3.4336c6.343-1.2529 12.56-2.4062 14.882-2.4324 1.7194-0.02 6.7099 0.39315 7.0978 2.4324 0.1835 1.0065-3.465 3.8687-4.7179 4.0626-0.96455 0.14675-2.0759-0.12575-3.2344 0-1.1376 0.13625-2.3013 0.6605-3.3916 0.8859-0.88068 0.173-1.6984 0.173-2.49 0.35123-2.3222 0.51897-6.0127 3.7586-7.8736 4.0522-1.8557 0.28307-3.8844-0.84398-6.1752-1.0642-0.56615-0.0472-1.1532-0.0315-1.7037 0-6.4845 0.58712-8.4503 11.921-10.322 17.991-0.57665 1.8819-1.3315 3.7534-2.4376 5.3155-1.1532 1.6408-2.836 3.2973-3.2501 4.4925-0.20975 0.6343 0.0263 1.017 0.47703 1.992 0.0735 0.17825 0.1205 0.29355 0.0735 0.3984-0.02 0.042-2.2226 0.90165-2.7626 0.9698-0.6972 0.10475-0.78108 0.152-0.82825 0.51372-0.3617 3.1295 5.9498 4.9171 7.4857 5.0114 1.3839 0.0732 1.8924 0.063 2.6001-0.1835 0.70768-0.25162 1.6146-0.98027 1.8557-1.2004 5.0114-4.4925 5.5042-11.616 7.8789-19.039 0.46653-1.4416 2.8517-8.3088 4.8699-8.5027 1.3472-0.11 1.7456 2.6997 2.2541 4.5292 0.8335 3.0247 2.4638 5.5147 3.2501 8.162 0.35122 1.1952 0.35122 5.2683 0 6.128-0.9698 2.338-4.1308 4.7126-6.3168 7.6849-0.86495 1.1532-0.7339 1.4416-0.9593 3.1295-0.27783 2.0549-8.0728 16.366-8.3297 18.395-0.0682 0.44035-0.0682 0.82825 0 1.2791 0.65525 4.7965 4.0941 5.6982 8.4031 5.0167 3.1977-0.5242 1.6722-1.2791 0.2621-4.178-0.36695-0.78108-0.48753-6.5631-0.1625-7.7216 0.54517-1.9081 1.3944-3.6642 2.4376-5.2998 1.9291-2.9985 8.7648-10.023 12.885-12.518 2.0496-1.2266 5.0796-2.5476 5.2474-0.44033 0.0577 0.61855-0.92262 2.0392-1.8819 3.2448-1.8085 2.2489-3.3392 4.5868-2.7259 6.2276 0.236 0.62905 3.9526 3.4493 5.8607 4.4558 2.8202 1.4992 6.301 3.8582 6.7309 4.5816 0.51372 0.83873 0.35122 1.5202-0.02 2.9723-0.74963 2.9041 0.6605 2.8517 3.3969 3.9158 1.0851 0.40887 2.6578 1.2319 2.6578 1.2319s0.19925-0.38793 0.346-0.71818c0.39315-0.7968 0.45605-1.2214 0.53468-1.7404 0.65002-4.4401 0.7706-6.7046-2.1283-9.006-1.7876-1.4311-5.9236-3.1662-6.7256-4.9957-1.5884-3.5699 1.4625-6.5159 3.7848-8.8592 1.2371-1.2581 4.0993-4.6236 5.7034-5.2474 2.013-0.74962 2.6473 0.2883 4.676 0.58188 0.93835 0.13625 1.9553-0.0943 2.857 0 0.94882 0.0995 1.7561 0.55565 2.9618 1.1638 2.5057 1.2738 6.7623 3.2186 6.7623 3.2186s3.009-2.5844 4.8018-3.5017c1.5097-0.76535 3.0299-0.84922 4.2933-0.0367 0.56615 0.34598 1.0589 0.67098 1.3892 1.148 1.0432 1.5779-0.78107 10.846-0.85445 13.048-0.173 4.9171 0.42985 6.6994-1.2109 11.381-0.75488 2.1807-1.038 2.7049-0.78633 4.8909 0.57663 4.7284 2.663 6.6208 7.0978 4.849 2.275-0.92785 0.5504-1.9606-0.5347-4.4244-1.0274-2.3537-0.28833-10.699-0.16775-11.873 0.1835-1.8714 4.9223-17.797 5.5042-18.452 2.2122-2.5739 8.9692-3.8477 12.586-3.528 1.2476 0.1205 1.7142 0.78633 2.338 2.7678 0.7444 2.3904-1.4206 2.9513-4.0626 4.199-2.2226 1.0536-2.3747 4.2933-1.2843 7.1345 0.87545 2.3484 2.642 0.58712 5.2054-1.1061 3.2711-2.1545 4.6917-2.7731 5.1373-6.4321 0.30928-2.4848-0.0315-8.7386-1.1323-10.442-0.74437-1.1533-2.7836-1.9553-4.6498-2.1021-4.005-0.33547-6.7099 0.98028-8.8696-1.1008-1.515-1.4678-1.4835-1.8348-0.62905-3.119 0.45083-0.67625 0.63953-1.5097 0.84923-2.3118 1.0432-4.0679 0.72865-6.1228-0.7077-10.584-0.31453-0.9855-6.0651-11.622-4.9643-14.877 0.498-1.5045 2.3694-3.4021 3.4755-3.8477 3.465-1.3472 4.7284 0.34597 7.8684 1.4416 1.646 0.58713 3.6223 0.90165 4.959 0 1.4783-0.97502 2.359-3.9263 1.4311-5.5881-0.236-0.41413-0.6343-0.58713-1.1008-1.2424-0.6081-0.84922-1.3525-2.5057-1.3525-2.5057s85.682-16.528 92.429-17.215c5.1163-0.51895 2.5739 1.4992 8.6338-0.97503 1.0799-0.44032 5.955-3.1767 5.955-3.1767s-4.0941-0.81253-6.626-1.0065c-6.0546-0.4613-4.0364 0.5609-8.4188 2.317-0.13625 0.0577 0.0315 0.0315-1.2162 0.26732l-0.152-0.0683c-8.0047-3.292-34.372-13.86-53.69-18.457-38.755-9.2208-72.173-9.4568-82.694-9.2576zm12.812 56.017c-0.51373 1.3787-2.0077 3.9054-2.8412 4.5134-0.51373 0.37218-1.861 0.9855-2.3432 0.77058-0.12575-0.0368-0.2255-0.1835-0.3093-0.33548-0.83872-1.4573-1.9396-5.326-1.2791-5.8659 0.51372-0.41938 2.3013-0.91738 3.8372-0.99075 0.8702-0.0368 3.0666-0.3355 3.2344 0.10475 0.1625 0.37744-0.19925 1.5254-0.2988 1.8033"/><path d="m169.79 379.96c0 1.9972-0.0735 2.1492-0.9593 2.663-4.8123 2.5162-12.062 3.3287-17.834 3.3287-18.132 0-34.184-8.5813-34.184-29.005 0-11.837 6.1385-20.124 12.869-24.192 7.1031-4.2933 13.692-4.807 19.904-4.807 5.111 0 11.616 0.8859 13.1 1.1795 1.5516 0.29881 4.1412 0.73913 5.845 0.81775 0.89115 0.0735 1.0379 0.36695 1.0379 0.88068 0 0.81777-0.51898 2.8884-0.51898 12.141 0 1.1847-0.22025 1.5517-0.81252 1.5517-0.51895 0-0.67097-0.36695-0.74437-0.95933-0.22026-1.7037-0.58713-4.0731-2.511-6.1438-2.2226-2.3642-8.141-5.7716-16.502-5.7716-4.0679 0-9.4725 0.2988-14.652 4.5868-4.1465 3.4755-6.8042 9.0269-6.8042 18.132 0 15.905 10.133 27.815 25.749 27.815 1.9238 0 4.5134 0 6.2853-0.80727 1.1113-0.51898 1.4049-1.4835 1.4049-2.7416v-6.9563c0-3.6957 0-6.5107-0.0735-8.7281-0.0735-2.5162-0.73915-3.7009-3.1767-4.2199-0.5976-0.14675-1.8504-0.22025-2.8884-0.22025-0.66575 0-1.1113-0.152-1.1113-0.59235 0-0.59235 0.51897-0.73915 1.5569-0.73915 3.8425 0 8.508 0.22025 10.725 0.22025 2.2908 0 6.2172-0.22025 8.66-0.22025 0.9593 0 1.4783 0.14675 1.4783 0.73915 0 0.44032-0.44557 0.59235-0.96455 0.59235-0.58712 0-1.1113 0.0735-1.9972 0.22025-1.9973 0.3722-2.7364 1.6303-2.8098 4.2199-0.0733 2.2174-0.0733 5.1792-0.0733 8.8801z"/><path d="m194.66 350.44c0-11.25 0-13.32-0.152-15.684-0.1415-2.5215-0.73915-3.701-3.1767-4.2199-0.59235-0.152-1.8505-0.2255-2.8884-0.2255-0.81252 0-1.2581-0.14675-1.2581-0.66575 0-0.51895 0.51895-0.66575 1.6303-0.66575 3.9211 0 8.5814 0.2255 10.799 0.2255 1.7771 0 6.4426-0.2255 9.1056-0.2255 1.1061 0 1.625 0.14675 1.625 0.66575 0 0.51898-0.44558 0.66575-1.1795 0.66575-0.81777 0-1.2634 0.0735-2.1493 0.2255-1.9972 0.36695-2.5896 1.625-2.7364 4.2199-0.14675 2.3642-0.14675 4.4348-0.14675 15.684v10.358c0 10.725 2.144 15.239 5.7663 18.201 3.334 2.7364 6.7361 3.0352 9.2523 3.0352 3.2554 0 7.2498-1.038 10.212-3.9997 4.0679-4.0679 4.288-10.725 4.288-18.347v-9.2471c0-11.25 0-13.32-0.14675-15.684-0.14675-2.5215-0.73915-3.701-3.182-4.2199-0.59237-0.152-1.8505-0.2255-2.663-0.2255s-1.2581-0.14675-1.2581-0.66575c0-0.51895 0.51895-0.66575 1.5569-0.66575 3.7691 0 8.4293 0.2255 8.5079 0.2255 0.88593 0 5.5462-0.2255 8.4346-0.2255 1.038 0 1.5517 0.14675 1.5517 0.66575 0 0.51897-0.44032 0.66575-1.3315 0.66575-0.81253 0-1.2581 0.0735-2.144 0.2255-1.9972 0.36695-2.5896 1.625-2.7364 4.2199-0.152 2.3642-0.152 4.4348-0.152 15.684v7.9156c0 8.2144-0.81253 16.942-7.0296 22.268-5.2526 4.5134-10.579 5.326-15.386 5.326-3.9263 0-11.024-0.22025-16.429-5.1006-3.7743-3.4074-6.5841-8.8801-6.5841-19.611z"/><path d="m284.55 361.9c0.37219 0 0.44557-0.2255 0.37219-0.44033l-6.6627-18.279c-0.0683-0.2988-0.14675-0.66575-0.36695-0.66575-0.22025 0-0.37218 0.36695-0.44557 0.66575l-6.8043 18.206c-0.0788 0.28832 0 0.51373 0.29355 0.51373zm-15.092 3.7009c-0.37217 0-0.51897 0.14675-0.66575 0.59238l-3.9945 10.579c-0.73915 1.8504-1.1113 3.6275-1.1113 4.5134 0 1.3315 0.66575 2.2908 2.9566 2.2908h1.1113c0.8859 0 1.1113 0.14675 1.1113 0.5976 0 0.59235-0.44557 0.73913-1.2581 0.73913-2.3694 0-5.5514-0.22026-7.8422-0.22026-0.81777 0-4.8856 0.22026-8.7334 0.22026-0.9593 0-1.4049-0.14675-1.4049-0.73913 0-0.45083 0.2988-0.5976 0.89115-0.5976 0.66575 0 1.6984-0.0683 2.2908-0.14675 3.4021-0.4456 4.807-2.9566 6.2905-6.6575l18.573-46.466c0.88592-2.144 1.3315-2.9566 2.0706-2.9566 0.66575 0 1.1113 0.6605 1.8504 2.3642 1.7771 4.0679 13.614 34.257 18.347 45.507 2.815 6.6575 4.959 7.6902 6.5107 8.0624 1.1113 0.2255 2.2226 0.29358 3.1086 0.29358 0.59235 0 0.96455 0.0788 0.96455 0.5976 0 0.59235-0.671 0.73912-3.4074 0.73912-2.663 0-8.0624 0-13.981-0.14675-1.3315-0.0735-2.2226-0.0735-2.2226-0.59235 0-0.45082 0.2988-0.5976 1.0379-0.66575 0.51897-0.152 1.0327-0.81777 0.66052-1.7037l-5.9131-15.684c-0.152-0.37218-0.3722-0.51898-0.74437-0.51898z"/><path d="m334.42 356.28c0 0.81253 0.14675 1.1061 0.66572 1.3263 1.5569 0.52419 3.7743 0.74437 5.6248 0.74437 2.9618 0 3.9211-0.29355 5.2526-1.2581 2.2226-1.625 4.3667-5.0324 4.3667-11.098 0-10.505-6.9563-13.54-11.323-13.54-1.8505 0-3.182 0.0735-3.9211 0.2988-0.51894 0.1415-0.66572 0.44033-0.66572 1.0274zm-8.7281-5.845c0-11.25 0-13.32-0.152-15.684-0.14675-2.5215-0.73912-3.7009-3.182-4.2199-0.59235-0.14675-1.8505-0.2255-2.8832-0.2255-0.81252 0-1.2581-0.14675-1.2581-0.66575 0-0.51372 0.51897-0.6605 1.6251-0.6605 3.9263 0 8.5866 0.22025 10.143 0.22025 2.511 0 8.1358-0.22025 10.432-0.22025 4.6602 0 9.614 0.44035 13.609 3.1767 2.0759 1.4049 5.0376 5.1792 5.0376 10.138 0 5.478-2.296 10.505-9.7713 16.57 6.5893 8.293 11.695 14.877 16.057 19.464 4.1465 4.2933 7.1817 4.807 8.2878 5.0324 0.81252 0.14675 1.4835 0.22025 2.0706 0.22025 0.57663 0 0.87018 0.22024 0.87018 0.59235 0 0.59235-0.50848 0.73912-1.3892 0.73912h-7.0297c-4.1412 0-5.9917-0.36695-7.9156-1.4049-3.1767-1.7037-5.9917-5.1792-10.133-10.877-2.9618-4.0679-6.3639-9.1003-7.3285-10.212-0.36695-0.44557-0.81253-0.51897-1.3315-0.51897l-6.4373-0.14675c-0.3722 0-0.59235 0.14675-0.59235 0.59237v1.0379c0 6.8829 0 12.728 0.37217 15.831 0.22025 2.1492 0.66575 3.7743 2.8832 4.0731 1.1114 0.14675 2.7416 0.29358 3.6276 0.29358 0.59235 0 0.88593 0.22025 0.88593 0.59235 0 0.51897-0.51373 0.73913-1.4783 0.73913-4.2933 0-9.766-0.22025-10.877-0.22025-1.4049 0-6.0651 0.22025-9.0269 0.22025-0.96452 0-1.4782-0.22025-1.4782-0.73913 0-0.3722 0.29355-0.59235 1.1794-0.59235 1.1114 0 2.0025-0.14675 2.6682-0.29358 1.4783-0.2988 1.8504-1.9238 2.144-4.0731 0.37217-3.1033 0.37217-8.9483 0.37217-15.758z"/><path d="m398.18 358.58c0 7.8422 0.0735 13.54 0.14675 14.945 0.0735 1.8504 0.2255 4.807 0.81252 5.6195 0.96455 1.4101 3.853 2.9618 9.6927 2.9618 7.5539 0 12.581-1.4783 17.021-5.326 4.7389-4.0731 6.2172-10.804 6.2172-18.426 0-9.3939-3.9211-15.464-7.103-18.499-6.8095-6.5054-15.244-7.3966-21.016-7.3966-1.4783 0-4.2147 0.2255-4.8123 0.51898-0.66573 0.29355-0.8859 0.6605-0.8859 1.4783-0.0735 2.5162-0.0735 8.9535-0.0735 14.798zm-9.2471-8.141c0-11.244 0-13.32-0.14675-15.684-0.152-2.5162-0.74438-3.7009-3.182-4.2199-0.59238-0.14675-1.8505-0.22025-2.8884-0.22025-0.81253 0-1.2529-0.14675-1.2529-0.66575 0-0.51898 0.51373-0.66575 1.625-0.66575 3.9211 0 8.5813 0.22025 10.652 0.22025 2.296 0 6.9563-0.22025 11.396-0.22025 9.2523 0 21.603 0 29.67 8.4346 3.7009 3.8477 7.1764 9.9862 7.1764 18.793 0 9.3205-3.9211 16.424-8.0624 20.643-3.4074 3.4755-11.103 8.7334-24.79 8.7334-2.663 0-5.6982-0.2255-8.5079-0.44557-2.815-0.22025-5.3994-0.44035-7.2498-0.44035-0.81778 0-2.4428 0-4.2199 0.0735-1.6984 0-3.6223 0.14675-5.1058 0.14675-0.95931 0-1.4783-0.22025-1.4783-0.73913 0-0.37745 0.2988-0.5976 1.1847-0.5976 1.1061 0 1.9972-0.14675 2.663-0.29357 1.4783-0.2988 1.8504-1.9238 2.144-4.0679 0.37217-3.1086 0.37217-8.9535 0.37217-15.763z"/><path d="m463.21 350.44c0-11.25 0-13.32-0.14675-15.684-0.152-2.5215-0.89114-3.7796-2.5214-4.1465-0.81252-0.22549-1.7718-0.2988-2.663-0.2988-0.73912 0-1.1794-0.14675-1.1794-0.73912 0-0.44558 0.59235-0.59238 1.7718-0.59238 2.815 0 7.4752 0.2255 9.6192 0.2255 1.8505 0 6.2172-0.2255 9.0322-0.2255 0.95932 0 1.5517 0.14675 1.5517 0.59238 0 0.59235-0.44557 0.73912-1.1847 0.73912-0.73913 0-1.3315 0.0735-2.2226 0.2255-1.992 0.36695-2.5896 1.625-2.7364 4.2199-0.14675 2.3642-0.14675 4.4348-0.14675 15.684v13.016c0 7.1817 0 13.027 0.29355 16.209 0.2255 1.9972 0.74438 3.3287 2.9618 3.6275 1.0379 0.14675 2.663 0.28833 3.7743 0.28833 0.81778 0 1.1847 0.2255 1.1847 0.5976 0 0.51897-0.59235 0.73912-1.4049 0.73912-4.8856 0-9.5459-0.22025-11.543-0.22025-1.7037 0-6.3639 0.22025-9.3257 0.22025-0.95933 0-1.4835-0.22025-1.4835-0.73912 0-0.3722 0.2988-0.5976 1.1847-0.5976 1.1113 0 2.0025-0.1415 2.6682-0.28833 1.4783-0.2988 1.9238-1.5569 2.144-3.7009 0.37217-3.1086 0.37217-8.9535 0.37217-16.135z"/><path d="m522.11 361.9c0.36695 0 0.44558-0.2255 0.36695-0.44033l-6.6575-18.279c-0.0735-0.2988-0.14675-0.66575-0.36695-0.66575-0.2255 0-0.3722 0.36695-0.44558 0.66575l-6.8095 18.206c-0.0735 0.28832 0 0.51373 0.29355 0.51373zm-15.092 3.7009c-0.3722 0-0.5242 0.14675-0.671 0.59238l-3.9945 10.579c-0.73912 1.8504-1.1113 3.6275-1.1113 4.5134 0 1.3315 0.66575 2.2908 2.9618 2.2908h1.1113c0.8859 0 1.1113 0.14675 1.1113 0.5976 0 0.59235-0.44557 0.73913-1.2581 0.73913-2.3694 0-5.5514-0.22026-7.8474-0.22026-0.81253 0-4.8804 0.22026-8.7281 0.22026-0.96455 0-1.4049-0.14675-1.4049-0.73913 0-0.45083 0.29357-0.5976 0.88592-0.5976 0.66575 0 1.6984-0.0683 2.296-0.14675 3.4021-0.4456 4.807-2.9566 6.2853-6.6575l18.573-46.466c0.89115-2.144 1.3315-2.9566 2.0759-2.9566 0.66575 0 1.1061 0.6605 1.8504 2.3642 1.7718 4.0679 13.614 34.257 18.347 45.507 2.8098 6.6575 4.959 7.6902 6.5107 8.0624 1.1113 0.2255 2.2174 0.29358 3.1086 0.29358 0.59235 0 0.96455 0.0788 0.96455 0.5976 0 0.59235-0.671 0.73912-3.4074 0.73912-2.663 0-8.0624 0-13.986-0.14675-1.3315-0.0735-2.2174-0.0735-2.2174-0.59235 0-0.45082 0.29356-0.5976 1.0327-0.66575 0.51896-0.152 1.0379-0.81777 0.66573-1.7037l-5.9183-15.684c-0.14676-0.37218-0.36695-0.51898-0.73916-0.51898z"/><path d="m567.39 374.85c0.14675 5.7716 1.1113 7.6954 2.5896 8.2144 1.2581 0.44557 2.663 0.51372 3.8477 0.51372 0.81252 0 1.2581 0.14675 1.2581 0.5976 0 0.59235-0.66575 0.73913-1.7037 0.73913-4.807 0-7.7688-0.22025-9.1737-0.22025-0.66572 0-4.1465 0.22025-7.989 0.22025-0.96455 0-1.6303-0.0733-1.6303-0.73913 0-0.45082 0.44558-0.5976 1.1847-0.5976 0.96455 0 2.296-0.0683 3.3288-0.36694 1.9238-0.59238 2.2226-2.7364 2.296-9.1789l0.66575-43.803c0-1.4783 0.22025-2.511 0.9593-2.511 0.81253 0 1.4835 0.9593 2.7416 2.2961 0.8859 0.95929 12.13 13.016 22.939 23.747 5.0272 5.0324 15.019 15.69 16.272 16.874h0.3722l-0.73915-33.224c-0.0785-4.5135-0.73913-5.9183-2.5162-6.6575-1.1113-0.44557-2.8832-0.44557-3.9211-0.44557-0.88593 0-1.1847-0.22025-1.1847-0.66575 0-0.59235 0.81778-0.66575 1.9238-0.66575 3.8477 0 7.4019 0.22025 8.9535 0.22025 0.81252 0 3.6276-0.22025 7.2498-0.22025 0.95933 0 1.7037 0.0735 1.7037 0.66575 0 0.44557-0.44557 0.66575-1.3315 0.66575-0.73912 0-1.3315 0-2.2174 0.22025-2.0706 0.59235-2.663 2.1492-2.7416 6.2905l-0.81253 46.691c0 1.625-0.2988 2.2908-0.96455 2.2908-0.81252 0-1.6984-0.81777-2.5162-1.625-4.6602-4.4453-14.133-14.133-21.828-21.76-8.0624-7.989-16.277-17.236-17.608-18.641h-0.22025z"/></g></svg>
